<svg xmlns="http://www.w3.org/2000/svg" xmlns:xlink="http://www.w3.org/1999/xlink" version="1.1" preserveAspectRatio="xMidYMid meet" viewBox="0 0 640 640" width="640" height="640"><defs><path d="M270.08 322.35C275.36 324.02 278.28 329.64 276.61 334.92C276.01 336.83 277.22 333.01 276.61 334.92C274.94 340.19 269.31 343.12 264.04 341.45C242.72 334.7 188.32 317.49 167 310.74C161.72 309.07 158.8 303.44 160.47 298.17C161.07 296.26 159.86 300.08 160.47 298.17C162.14 292.9 167.77 289.97 173.04 291.64C194.36 298.39 248.77 315.6 270.08 322.35Z" id="b1aMnfgvQW"/><path d="M336.5 386.88C342.01 386.88 346.47 391.35 346.47 396.85C346.47 429.56 346.47 517.72 346.47 550.42C346.47 555.93 342.01 560.39 336.5 560.39C334.51 560.39 338.5 560.39 336.5 560.39C331 560.39 326.54 555.93 326.54 550.42C326.54 517.72 326.54 429.56 326.54 396.85C326.54 391.35 331 386.88 336.5 386.88C338.5 386.88 334.51 386.88 336.5 386.88Z" id="d54O87JZ0B"/><path d="M232.75 542.8L434.39 542.8L434.39 577.97L232.75 577.97L232.75 542.8Z" id="beHcZH02v"/><path d="M165.85 40.85L171.16 38.36L263.32 234.68L258.01 237.17L165.85 40.85Z" id="b5Fo2Mjacq"/><path d="M305.03 177.6C314.12 174.16 324.26 178.75 327.69 187.83C344.34 231.92 388.08 347.74 404.73 391.83C408.16 400.91 403.58 411.06 394.49 414.49C369.49 423.93 310.92 446.05 285.92 455.49C276.83 458.92 266.68 454.34 263.25 445.25C246.6 401.17 202.87 285.35 186.22 241.26C182.78 232.18 187.37 222.03 196.45 218.6C221.46 209.16 280.02 187.04 305.03 177.6Z" id="c3q8FrHaw3"/><path d="M303.73 218.73L334.1 207.36L335.33 210.66L304.96 222.02L303.73 218.73Z" id="b1yFhzwZ"/><path d="M208.67 297.67L237.77 283.36L239.32 286.51L210.22 300.83L208.67 297.67Z" id="i2FEpI6oiX"/><path d="M318.17 378.76L283.89 297.69L289.29 295.41L323.56 376.47L318.17 378.76Z" id="b1T953DMBT"/><path d="M300.08 255.16L348.14 237.17L349.38 240.47L301.31 258.46L300.08 255.16Z" id="aobiT8BlJ"/><path d="M316.55 302.75L364.62 284.76L365.85 288.06L317.78 306.05L316.55 302.75Z" id="kNzomxz2M"/><path d="M329.68 341.49L377.75 323.49L378.98 326.79L330.92 344.78L329.68 341.49Z" id="izit6fjcP"/><path d="M324.73 269.83L355.1 258.46L356.33 261.75L325.96 273.12L324.73 269.83Z" id="bmcddjNLE"/><path d="M338.53 313.25L368.9 301.88L370.14 305.18L339.76 316.54L338.53 313.25Z" id="b23hRBB7F8"/><path d="M236.01 261.73C236.01 269.41 229.78 275.64 222.1 275.64C214.42 275.64 208.19 269.41 208.19 261.73C208.19 254.05 214.42 247.81 222.1 247.81C229.78 247.81 236.01 254.05 236.01 261.73Z" id="a3Z6NxrGg0"/><path d="M252.74 299.47C256.81 295.72 263.15 295.98 266.9 300.05C268.25 301.52 265.54 298.57 266.9 300.05C270.65 304.12 270.39 310.45 266.32 314.2C249.87 329.35 207.91 368.02 191.46 383.17C187.39 386.92 181.06 386.66 177.31 382.59C175.95 381.12 178.67 384.07 177.31 382.59C173.56 378.52 173.82 372.19 177.89 368.44C194.33 353.29 236.3 314.62 252.74 299.47Z" id="b3c1oiOc3s"/></defs><g><g><g><use xlink:href="#b1aMnfgvQW" opacity="1" fill="#a1b3ae" fill-opacity="1"/><g><use xlink:href="#b1aMnfgvQW" opacity="1" fill-opacity="0" stroke="#bfeabb" stroke-width="1" stroke-opacity="1"/></g></g><g><use xlink:href="#d54O87JZ0B" opacity="1" fill="#2af8c8" fill-opacity="1"/></g><g><use xlink:href="#beHcZH02v" opacity="1" fill="#b6e7d8" fill-opacity="1"/></g><g><use xlink:href="#b5Fo2Mjacq" opacity="1" fill="#ffffff" fill-opacity="1"/></g><g><use xlink:href="#c3q8FrHaw3" opacity="1" fill="#4ab499" fill-opacity="1"/></g><g><use xlink:href="#b1yFhzwZ" opacity="1" fill="#ffffff" fill-opacity="1"/></g><g><use xlink:href="#i2FEpI6oiX" opacity="1" fill="#ffffff" fill-opacity="1"/></g><g><use xlink:href="#b1T953DMBT" opacity="1" fill="#ffffff" fill-opacity="1"/></g><g><use xlink:href="#aobiT8BlJ" opacity="1" fill="#ffffff" fill-opacity="1"/></g><g><use xlink:href="#kNzomxz2M" opacity="1" fill="#ffffff" fill-opacity="1"/></g><g><use xlink:href="#izit6fjcP" opacity="1" fill="#ffffff" fill-opacity="1"/></g><g><use xlink:href="#bmcddjNLE" opacity="1" fill="#ffffff" fill-opacity="1"/></g><g><use xlink:href="#b23hRBB7F8" opacity="1" fill="#ffffff" fill-opacity="1"/></g><g><use xlink:href="#a3Z6NxrGg0" opacity="1" fill="#ffffff" fill-opacity="1"/></g><g><use xlink:href="#b3c1oiOc3s" opacity="1" fill="#a1b3ae" fill-opacity="1"/><g><use xlink:href="#b3c1oiOc3s" opacity="1" fill-opacity="0" stroke="#bfeabb" stroke-width="1" stroke-opacity="1"/></g></g></g></g></svg>